<?xml version="1.0" standalone="no"?>
<!DOCTYPE svg PUBLIC "-//W3C//DTD SVG 1.1//EN" "http://www.w3.org/Graphics/SVG/1.1/DTD/svg11.dtd" >
<svg xmlns="http://www.w3.org/2000/svg">
<metadata>
Created by FontForge 20120731 at Sat Jun  3 17:14:15 2017
 By admin
</metadata>
<defs>
<font id="iconfont" horiz-adv-x="1024" >
  <font-face 
    font-family="iconfont"
    font-weight="500"
    font-stretch="normal"
    units-per-em="1024"
    panose-1="2 0 6 3 0 0 0 0 0 0"
    ascent="896"
    descent="-128"
    x-height="792"
    bbox="0 -128 1025 896.5"
    underline-thickness="0"
    underline-position="0"
    unicode-range="U+0078-E6B1"
  />
<missing-glyph 
 />
    <glyph glyph-name=".notdef" 
 />
    <glyph glyph-name=".notdef" 
 />
    <glyph glyph-name=".null" horiz-adv-x="0" 
 />
    <glyph glyph-name="nonmarkingreturn" horiz-adv-x="341" 
 />
    <glyph glyph-name="x" unicode="x" horiz-adv-x="1001" 
d="M281 543q-27 -1 -53 -1h-83q-18 0 -36.5 -6t-32.5 -18.5t-23 -32t-9 -45.5v-76h912v41q0 16 -0.5 30t-0.5 18q0 13 -5 29t-17 29.5t-31.5 22.5t-49.5 9h-133v-97h-438v97zM955 310v-52q0 -23 0.5 -52t0.5 -58t-10.5 -47.5t-26 -30t-33 -16t-31.5 -4.5q-14 -1 -29.5 -0.5
t-29.5 0.5h-32l-45 128h-439l-44 -128h-29h-34q-20 0 -45 1q-25 0 -41 9.5t-25.5 23t-13.5 29.5t-4 30v167h911zM163 247q-12 0 -21 -8.5t-9 -21.5t9 -21.5t21 -8.5q13 0 22 8.5t9 21.5t-9 21.5t-22 8.5zM316 123q-8 -26 -14 -48q-5 -19 -10.5 -37t-7.5 -25t-3 -15t1 -14.5
t9.5 -10.5t21.5 -4h37h67h81h80h64h36q23 0 34 12t2 38q-5 13 -9.5 30.5t-9.5 34.5q-5 19 -11 39h-368zM336 498v228q0 11 2.5 23t10 21.5t20.5 15.5t34 6h188q31 0 51.5 -14.5t20.5 -52.5v-227h-327z" />
    <glyph glyph-name="yuancheng" unicode="&#xe617;" 
d="M984 289l-203 -196q-13 -11 -31 -13h-3q-5 0 -8.5 3t-3.5 8v96h-290q-19 0 -32.5 13t-13.5 31v180q0 18 13.5 31t32.5 13h290v97q0 5 3.5 8t8.5 3h3q18 -1 31 -13l203 -196q14 -13 14 -32.5t-14 -32.5zM939 341l-154 143v-73h-319q-10 0 -16.5 -6.5t-6.5 -15.5v-133
q0 -9 6.5 -15.5t16.5 -6.5h319v-80l154 147q8 9 8 20.5t-8 19.5zM558 536h-319v73l-154 -143q-8 -8 -8 -20t8 -20l154 -147v80h102v-47h-52v-96q0 -5 -3.5 -8t-8.5 -3h-3q-18 2 -31 14l-203 195q-14 13 -14 32.5t14 32.5l203 195q13 13 31 14h3q5 0 8.5 -3t3.5 -8v-97h290
q19 0 33 -13t14 -31v-14h-46q-6 14 -22 14z" />
    <glyph glyph-name="zhanghu" unicode="&#xe600;" 
d="M271 609v0q0 -99 69.5 -169t168.5 -70t169 70t70 169v0q0 99 -70 169t-169 70t-168.5 -70t-69.5 -169zM888 102q-5 18 -16 35q-27 54 -67 95q-55 57 -131.5 88.5t-161.5 31.5q-117 0 -215 -60.5t-148 -159.5q-4 -7 -13 -36q-16 -49 0 -87q15 -37 53 -57q35 -19 87 -19v-1
l472 1q54 0 87 18q39 21 52 52q9 22 10 47q0 25 -9 52z" />
    <glyph glyph-name="fangdajing" unicode="&#xe621;" horiz-adv-x="1027" 
d="M995 18l-275 242q-3 0 -3 3q80 104 80 234q0 110 -53.5 202t-144 144.5t-197.5 52.5q-79 0 -152.5 -32t-127.5 -85.5t-86 -128t-32 -156.5q0 -110 54 -202t146 -144.5t198 -52.5q109 0 209 59q3 -2 8.5 -7.5t9.5 -7.5l274 -241q25 -19 48 -19q33 0 58 26q15 26 12 59
t-26 54v0zM77 494q0 88 43.5 163t118.5 118.5t163 43.5t163 -43.5t119 -118.5t44 -163t-44 -163t-119 -119t-163 -44t-163 44t-118.5 119t-43.5 163z" />
    <glyph glyph-name="biaoqian" unicode="&#xe622;" 
d="M285 636q11 0 15 -7q5 -5 5 -15t-5 -18q-2 0 -7.5 -2t-7.5 -2q-11 0 -14 8q-6 5 -6 14.5t6 18.5q3 3 14 3zM285.5 684q-29.5 0 -51.5 -22t-22 -51t22 -48q22 -22 51.5 -22t51 22t21.5 51t-22 48q-21 22 -50.5 22zM230 841q165 0 220 -18l515 -516q11 -11 0 -22l-351 -347
q-3 -4 -10.5 -4t-11.5 4l-523 523q-10 26 -11.5 133t4.5 207q0 14 11.5 25t25.5 11q1 0 20.5 1t50.5 2t60 1zM230 896q-20 0 -41.5 -0.5t-37.5 -1t-29 -1t-20 -1l-7 -0.5q-36 -2 -60.5 -27t-27.5 -60q-1 -14 -2 -37t-2.5 -83.5t-0.5 -109t6.5 -93.5t17.5 -58l526 -526
q22 -22 51.5 -22t51.5 22l351 347q19 19 19 49.5t-19 49.5l-523 523q-25 29 -253 29z" />
    <glyph glyph-name="dianhua" unicode="&#xe623;" 
d="M646 134q-49 3 -109 45t-121 115l-29 32q-59 72 -89 139.5t-23 113.5q5 32 41 56t68 24q13 0 19.5 -5t6.5 -11q17 -29 32.5 -68.5t15.5 -56.5v-6q-4 -13 -23 -22q-8 -4 -11 -6t-5.5 -6.5t-2.5 -10.5q0 -18 54 -86l23 -29q60 -70 73 -70q13 -4 29 12t29 20h6
q18 -5 55.5 -27.5t60.5 -43.5q14 -7 6 -35q-20 -27 -49 -50.5t-57 -23.5zM512 867q98 0 187 -38t153 -102t102 -153t38 -187t-38 -186.5t-102 -153t-153 -102.5t-187 -38t-187 39t-153 104t-102 153.5t-38 184t38 184t102 153.5t153 103.5t187 38.5zM512 896
q-104 0 -198 -40t-162 -108.5t-108.5 -162.5t-40.5 -198t40.5 -198t108.5 -162t162 -108.5t198 -40.5t198 41t162 109.5t108.5 162.5t40.5 196.5t-41 196.5t-109 162.5t-162.5 109t-196.5 40.5z" />
    <glyph glyph-name="fanhui" unicode="&#xe624;" 
d="M515 -91q-16 0 -27 11l-440 443q-10 10 -10 25.5t10 27.5l440 437q10 10 25.5 10t27.5 -10q10 -10 10 -25.5t-10 -27.5l-416 -411l419 -416q10 -10 10 -25.5t-10 -27.5q-14 -11 -29 -11z" />
    <glyph glyph-name="fuzhi" unicode="&#xe625;" 
d="M934 864h-662q-25 0 -43.5 -17.5t-18.5 -40.5v-127h-120q-24 -3 -41 -20t-17 -42v-651q0 -25 17.5 -42t40.5 -17h662q25 0 41.5 17.5t16.5 41.5v127h120q25 0 42 17t17 41v655q2 23 -15 40.5t-40 17.5zM759 -34q0 -7 -4 -7h-665q-7 0 -7 7v651q0 7 7 7h662q7 0 7 -7v-651
zM937 154q0 -7 -7 -7h-116v470q0 25 -17.5 41.5t-41.5 16.5h-493v131q0 7 7 7h661q7 0 7 -7v-652z" />
    <glyph glyph-name="jinru" unicode="&#xe627;" horiz-adv-x="1026" 
d="M515.5 -121q-18.5 0 -29.5 11q-13 14 -13 31.5t13 30.5l436 436l-436 431q-13 14 -13 31.5t13.5 31t31 13.5t31.5 -14l460 -460q14 -14 14 -31.5t-14 -31.5l-464 -468q-11 -11 -29.5 -11z" />
    <glyph glyph-name="gengduo" unicode="&#xe628;" 
d="M45 303q23 -15 51 -15q40 0 68 28t28 68q0 22 -13 46t-32 35q-23 15 -51 15q-40 0 -68 -28t-28 -68q0 -22 13 -46t32 -35zM461 303q23 -15 51 -15q40 0 68 28t28 68q0 22 -13 46t-32 35q-23 15 -51 15q-40 0 -68 -28t-28 -68q0 -22 13 -46t32 -35zM877 303q23 -15 51 -15
q40 0 68 28t28 68q0 22 -13 45.5t-32 35.5q-23 15 -51 15q-40 0 -68 -28t-28 -68q0 -22 13 -46t32 -35z" />
    <glyph glyph-name="shanchu" unicode="&#xe62c;" 
d="M968 686h-250v120q0 25 -17.5 41.5t-41.5 16.5h-294q-24 0 -41.5 -17.5t-17.5 -40.5v-120h-250q-10 0 -15.5 -8.5t-5.5 -19.5q0 -10 7 -17t17 -7h107v-10l3 -658q0 -25 17.5 -42t40.5 -17h594q23 0 40.5 18t17.5 41l-7 658v7h96q24 6 24 27q0 11 -7 19.5t-17 8.5z
M358 806q0 7 7 7h294q7 0 7 -11v-120h-308v124zM821 624l6 -658q0 -7 -6 -7h-594q-6 0 -6 10l-7 655q0 7 7 7h593q1 1 3 1t3 -2.5t1 -5.5zM666 470v-350q0 -10 7 -17t17.5 -7t17 7t6.5 17v350q0 10 -6.5 17t-17.5 7q-8 0 -16 -7.5t-8 -16.5zM512 494q-10 0 -17 -7t-7 -17
v-350q0 -10 7 -17t17 -7t17 7t7 17v350q2 10 -5.5 17t-18.5 7zM344 494q-10 0 -17 -7t-7 -17v-350q0 -10 7 -17t17 -7t17 7t7 17v350q2 10 -5.5 17t-18.5 7z" />
    <glyph glyph-name="qianfei1" unicode="&#xe62d;" 
d="M512 896q-104 0 -198 -40.5t-162 -109.5t-108 -163.5t-40 -198.5t40 -198t108 -162t162 -108t198 -40t198.5 40.5t163.5 109t109.5 162.5t40.5 196q0 138 -69 256t-187 187t-256 69zM512 -69q-93 0 -177.5 36t-146 97t-97.5 144.5t-36 175.5t36 176t97.5 146t146 98.5
t177.5 36.5t177.5 -36t146 -97.5t97.5 -146t36 -177.5t-36 -177t-97.5 -144.5t-146 -96t-177.5 -35.5zM318 399q-11 -17 -22 -22q-5 -3 -18 3q-11 6 -11 19q0 9 11 25q5 9 18 25.5t19 25.5q21 37 29 55l22 55q8 22 14 51q6 17 11 22q4 4 22 4q11 -4 19 -11q2 -5 -4 -29
q-2 -4 -4 -11.5t-3.5 -11t-3.5 -11t-4 -10.5h282q40 0 51 -22t0 -55l-33 -77q-22 -44 -40 -66q-11 -16 -22 -22q-6 -2 -18 4q-11 6 -11 18q0 10 11 26q14 22 36 59q13 21 26 65q3 6 3 10.5t-3 4.5q0 4 -15 4h-161q0 -33 -3 -48q0 -7 -2 -21.5t-2 -22.5q42 -114 95 -172
q63 -69 143 -106q22 -11 25 -18q5 -9 0 -22q-7 -15 -14.5 -15t-29.5 8q-34 15 -69 44q-44 36 -62 54l-55 66q-25 38 -40 73q-13 -49 -33 -80q-25 -43 -48 -66q-31 -32 -66 -51q-51 -29 -80 -44q-5 -1 -11.5 -3t-10.5 -3t-7 -1t-7 4.5t-4 9.5q-6 11 0 22q4 9 22 15
q53 21 95 51q43 31 69 73q31 49 40 103q12 41 19 139h-92q-5 -9 -19 -32t-27.5 -44.5t-26.5 -40.5z" />
    <glyph glyph-name="shijian" unicode="&#xe62f;" 
d="M512 841q93 0 177 -36t144.5 -97t96 -145t35.5 -175.5t-35.5 -175.5t-96 -145t-144.5 -97t-177 -36t-177 35.5t-144.5 96.5t-96 145t-35.5 177t35.5 177t96 144.5t144.5 96t177 35.5zM512 896q-102 0 -196 -40.5t-162.5 -109t-109 -162.5t-40.5 -196.5t40.5 -196.5
t109 -162t162.5 -109t196 -41t196 41t162.5 109t109 162t40.5 196.5t-40.5 196.5t-109 162.5t-162.5 109t-196 40.5zM812 296h-326q-4 0 -6.5 3.5t-3.5 11t-1 13v15.5v12l-1 8q0 -8 12 -8h326q12 0 20.5 -8t8.5 -21t-8.5 -19.5t-20.5 -6.5zM486 296q-11 0 -20 8t-9 21v333
q0 12 8 21t21 9q14 0 22 -8t8 -22v-333q0 -11 -8 -20t-22 -9z" />
    <glyph glyph-name="tishi" unicode="&#xe630;" 
d="M530.5 -91q-100.5 0 -192 39t-157.5 105t-105 157.5t-39 192t39 192t105 157.5t157.5 105t192 39t192 -39t157.5 -105t105 -157.5t39 -192t-39 -192t-105 -157.5t-157.5 -105t-192 -39zM489 671l12 -411h49l12 411h-73zM525 203q-21 0 -33 -14q-14 -13 -14 -32v-1
q0 -20 14 -34q13 -13 33 -13t35 13q13 14 13 34t-13.5 33.5t-34.5 13.5z" />
    <glyph glyph-name="tingzhi" unicode="&#xe632;" 
d="M749 360h-474q-10 0 -18.5 7.5t-8.5 19.5q0 28 27 28h470q11 0 19.5 -7.5t8.5 -20.5q0 -12 -8 -19.5t-16 -7.5zM512 813q116 0 214 -57.5t154.5 -155.5t56.5 -212.5t-56.5 -212.5t-154.5 -155.5t-214 -57.5t-214 56.5t-154.5 154.5t-56.5 214.5t56.5 214.5t154.5 154.5
t214 56.5zM512 864q-96 0 -184 -38t-152 -102t-102.5 -152.5t-38.5 -184t38.5 -184t102.5 -152.5t152 -102t184 -38t184 38t152 102t102.5 152.5t38.5 184t-38.5 184t-102.5 152.5t-152 102t-184 38z" />
    <glyph glyph-name="weixuanzhong" unicode="&#xe634;" 
d="M512 845q93 0 178 -36.5t146.5 -98.5t97.5 -146.5t36 -177t-36 -177t-97.5 -146.5t-146.5 -98.5t-178 -36.5t-178 36.5t-146.5 97.5t-97.5 146t-36 178.5t36 178.5t97.5 146t146.5 97.5t178 36.5zM512 896q-103 0 -197 -40.5t-162.5 -109t-109 -163t-40.5 -197t40.5 -197
t109 -163t162.5 -109t197 -40.5t197 40.5t162.5 109t109 163t40.5 197t-40.5 197t-109 163t-162.5 109t-197 40.5z" />
    <glyph glyph-name="xiaofeizuiduo" unicode="&#xe638;" 
d="M512 896q-102 0 -196 -40.5t-162.5 -109t-109 -162.5t-40.5 -196.5t40.5 -196.5t109 -162t162.5 -109t196 -41t196 41t162.5 109t109 162t40.5 196.5t-40.5 196.5t-109 162.5t-162.5 109t-196 40.5zM512 -66q-93 0 -177 36t-144.5 97t-96 145t-35.5 175.5t35.5 175.5
t96 145t144.5 97t177 36t177 -35.5t144.5 -96t96 -144.5t35.5 -177t-35.5 -177t-96 -145t-144.5 -96.5t-177 -35.5zM695 413q11 0 20 8t9 21.5t-9 21.5t-20 8h-103l92 91q8 8 8 20t-8 20.5t-20 8.5t-20 -9l-132 -131l-128 131q-8 9 -20 9t-20 -8.5t-8 -20.5t8 -20l91 -91
h-106q-14 0 -21.5 -8t-7.5 -21q0 -14 9 -22t20 -8h154v-106h-154q-14 0 -21.5 -7.5t-7.5 -21.5q0 -13 9 -21t20 -8h154v-114q0 -13 8.5 -21t20.5 -8q11 0 20 9t9 20v114h154q11 0 20 8t9 21t-9 21t-20 8h-154v106h154z" />
    <glyph glyph-name="xuanzhong" unicode="&#xe639;" 
d="M34 386.5q0 -97.5 38 -186t102 -152.5t152.5 -101.5t185.5 -37.5t185.5 37.5t152.5 101.5t102 152.5t38 185.5v0q0 98 -38 186t-102 152t-152.5 102t-185.5 38t-185.5 -38t-152.5 -102t-102 -152t-38 -185.5zM474 202q-5 0 -15 4l-182 137q-7 6 -8.5 16.5t3.5 17.5
t15.5 8.5t18.5 -3.5l168 -125l324 259q7 6 17.5 5t15.5 -10q6 -7 5 -17.5t-10 -15.5l-338 -272q-5 -4 -14 -4z" />
    <glyph glyph-name="xiugai" unicode="&#xe63a;" 
d="M968 572q-10 0 -17 -6.5t-7 -17.5v-545q0 -16 -12 -28.5t-29 -12.5h-778q-16 0 -28.5 12t-12.5 29v775q2 16 13.5 27t27.5 11h531q10 0 17 7t7 17t-7 17t-17 7h-531q-36 2 -62.5 -24t-26.5 -62v-775q0 -38 26 -65t63 -27h774q36 0 62.5 26.5t26.5 62.5v545
q3 10 -3.5 18.5t-16.5 8.5zM413 271q6 -7 16.5 -7t17.5 7l528 535q7 7 7 18t-7 16q-17 17 -35 0l-527 -532q-6 -7 -6 -18.5t6 -18.5z" />
    <glyph glyph-name="xiaoshou" unicode="&#xe63b;" 
d="M640 -128q-37 0 -72 6.5t-78 22.5t-65 25.5t-74 33.5l-22 11q-65 31 -129 63t-95.5 48.5l-31.5 16.5q-47 22 -64.5 72t6.5 100q16 33 47 53t66 20q27 0 55 -11l117 -59q-82 214 -124 289q-42 70 -99 106q-2 2 -13.5 11t-16 13t-12.5 12t-13 15q-26 43 -15 96q19 49 62 65
q11 4 30 4q73 0 175 -102q39 -39 77 -103q8 27 30 48t51 33q21 7 36 7q50 0 84 -40q18 35 55 47q22 8 37 8q32 0 58.5 -18t39.5 -48q22 14 30 18q22 7 33 7q30 0 55 -17t36 -45q7 -14 37 -104t59.5 -208t24.5 -167q-6 -41 -11.5 -69t-21 -65t-37.5 -63.5t-61.5 -54.5
t-91.5 -48q-88 -29 -154 -29zM128 300q-49 0 -73 -48q-14 -30 -2 -63t42 -46q1 0 32.5 -16.5t96 -49t127.5 -62.5l26 -11l18 -9q57 -26 87 -38.5t76 -24.5t86 -12q68 0 135 25q47 17 81 40t53.5 45.5t32.5 54.5t18 57.5t9 62.5q7 53 -34.5 200t-82.5 257q-12 29 -48 29
q-11 0 -18 -3q-11 0 -29 -19l22 -58q3 -9 -1 -18t-14 -12q-9 -3 -18 1t-11 14l-33 95q-5 19 -22 29.5t-37 10.5q-14 0 -22 -3q-26 -14 -36 -33q-11 -21 -4 -48l15 -36q3 -9 -1 -18t-14 -12q-9 -3 -18 1t-11 14l-29 81q-6 18 -22.5 29t-36.5 11q-15 0 -22 -4
q-27 -10 -43.5 -35t-3.5 -60l22 -58q2 -9 -1 -18t-10 -12q-9 -3 -18 0t-12 11q-77 143 -135 205q-49 50 -91 73t-66 15q-29 -14 -33 -37q-10 -25 7 -55q17 -22 40 -36q22 -14 36.5 -26t36.5 -38t41 -61q17 -30 38 -76.5t38.5 -91.5t32 -85t24 -66.5t9.5 -27.5q6 -12 -7 -26
q-11 -11 -26 -3l-168 84q-11 11 -29 11zM647 -117q-36 0 -71.5 6.5t-78.5 22.5t-65 25.5t-74 33.5l-22 11q-65 31 -129 63t-95.5 48.5l-31.5 16.5q-47 22 -64.5 72t6.5 100q17 33 47.5 53t65.5 20q28 0 55 -11l117 -59q-81 214 -124 289q-41 70 -99 106q-1 2 -13 11
t-16.5 13t-12.5 12t-13 15q-28 45 -11 96q19 49 62 65q4 0 14 2t16 2q73 0 175 -102q9 -9 20 -23t18 -23.5t21 -30t18 -26.5q8 27 30 48t51 33q21 7 36 7q50 0 84 -40q18 35 55 47q22 8 37 8q32 0 58.5 -18t39.5 -48q22 14 30 18q22 7 33 7q30 0 55 -17t36 -45
q0 -1 14.5 -44t32 -100.5t35 -121.5t28 -123t7.5 -90q-5 -41 -11 -69t-21 -65t-37.5 -63.5t-61.5 -54.5t-92 -48q-88 -29 -154 -29zM146 311q-22 0 -41.5 -13t-27.5 -35q-14 -30 -2.5 -61t38.5 -45q1 0 31 -16t91 -47.5t123 -60.5l22 -11q59 -28 90.5 -41.5t79 -26.5
t90.5 -13q65 0 132 26q44 17 77 39.5t52 44.5t31 52.5t17 55.5t9 60q5 54 -35.5 199.5t-77.5 247.5q-3 10 -15 17.5t-25 7.5q-11 0 -19 -3q-11 -4 -29 -22l18 -55q3 -9 -0.5 -18t-13.5 -12q-9 -3 -18 1t-12 14l-32 95q-6 19 -22 29.5t-33 10.5q-15 0 -22 -3q-22 -11 -33 -33
q-6 -25 3 -44l11 -37q3 -9 -0.5 -17.5t-13.5 -11.5q-9 -3 -18 0.5t-11 14.5l-26 77q-5 18 -21 29t-34 11q-15 0 -22 -4q-27 -10 -43.5 -34.5t-3.5 -56.5l22 -59q2 -8 -1 -17t-10 -12q-18 -6 -30 11q-73 139 -128 197q-49 50 -90 73t-63 15q-23 -11 -33 -36q-7 -28 7 -52
q3 -6 8 -11t16.5 -13.5t15.5 -11.5q1 -1 11.5 -8.5t13 -9.5t12.5 -10.5t14.5 -13t13.5 -14.5t15.5 -18.5t14.5 -21t15 -25.5q26 -49 61 -135t53.5 -136t24.5 -69q6 -12 -7 -26q-11 -11 -26 -3l-161 80q-14 15 -33 15z" />
    <glyph glyph-name="yulan" unicode="&#xe63c;" 
d="M1015 -82l-173 170q63 72 63 171q0 111 -78.5 189t-189.5 78t-189 -78t-78 -189t78 -189.5t189 -78.5q99 0 171 63l173 -171q15 -14 34 0q7 7 7 17.5t-7 17.5zM637.5 48q-89.5 0 -153 63.5t-63.5 153t63.5 153t153 63.5t152.5 -63.5t63 -153t-63 -153t-152.5 -63.5z
M714 677q0 11 -7.5 18.5t-18.5 7.5h-483q-11 0 -18.5 -7.5t-7.5 -18.5t7.5 -18.5t18.5 -7.5h481q12 0 20 7.5t8 18.5zM176 105q0 -10 7.5 -17.5t18.5 -7.5h162q11 0 18.5 7.5t7.5 18t-7.5 18t-18.5 7.5h-159q-13 2 -21 -5.5t-8 -20.5zM338 421h-133q-11 0 -18.5 -7.5
t-7.5 -18t7.5 -18t18.5 -7.5h133q11 0 18.5 7.5t7.5 17.5q0 9 -7.5 17.5t-18.5 8.5zM631 -65h-480q-37 0 -62.5 25.5t-25.5 62.5v725q-5 35 22 63q26 25 63 25h592q37 0 62 -25q23 -23 23 -63v-205q0 -9 7.5 -15.5t23.5 -6.5q12 0 19 8t7 20v208q0 57 -40.5 98t-96.5 41
h-606q-57 0 -96.5 -41t-39.5 -98v-740q0 -58 41 -98.5t98 -40.5h492q11 0 20 8.5t9 19.5q-5 29 -32 29v0z" />
    <glyph glyph-name="zhongyao" unicode="&#xe63d;" horiz-adv-x="1025" 
d="M815 230zM1016 479q16 15 3 40q-5 11 -18 11l-318 47l-142 303q-6 9 -15.5 13.5t-17.5 1.5q-15 -7 -18 -15l-147 -299h-3l-318 -48q-9 -3 -15.5 -12.5t-6.5 -20.5q0 -7 7 -21l230 -238l-54 -329q-3 -10 3 -20t15 -13q3 -1 7 -1t8 0.5t7 0.5l285 157l285 -157
q8 -6 19.5 -2.5t16.5 13.5q8 15 4 22l-55 333zM782 248zM720 270l47 -299l-255 142l-256 -142l47 299l-208 212l289 44l128 270l127 -274l289 -43z" />
    <glyph glyph-name="xuanzhong1" unicode="&#xe648;" 
d="M32 384q0 -98 38 -186.5t102.5 -153t153 -102.5t186.5 -38t186.5 38t153 102.5t102.5 153t38 186.5t-38 186.5t-102.5 153t-153 102.5t-186.5 38t-186.5 -38t-153 -102.5t-102.5 -153t-38 -186.5zM474 199q-5 0 -15 5l-182 137q-7 5 -8.5 15.5t3.5 18t15.5 9t18.5 -4.5
l168 -125l326 262q7 6 17.5 5t16.5 -10q5 -7 4 -17.5t-9 -15.5l-341 -274q-5 -5 -14 -5z" />
    <glyph glyph-name="duanxin-bunengxuan" unicode="&#xe64c;" 
d="M512 845q93 0 178 -36.5t146.5 -98.5t97.5 -146.5t36 -177t-36 -177t-97.5 -146.5t-146.5 -98.5t-178 -36.5t-178 36.5t-146.5 98.5t-97.5 146.5t-36 177t36 177t97.5 146.5t146.5 98.5t178 36.5zM512 896q-103 0 -197 -40.5t-162.5 -109t-109 -163t-40.5 -197t40.5 -197
t109 -163t162.5 -109t197 -40.5t197 40.5t162.5 109t109 163t40.5 197t-40.5 197t-109 163t-162.5 109t-197 40.5zM768 361h-509q-12 0 -19 7t-7 18.5t7 18.5t19 7h509q12 0 19 -7t7 -18q0 -12 -8 -19t-18 -7z" />
    <glyph glyph-name="quanbuhuanzhe" unicode="&#xe64d;" 
d="M483 362q85 22 141 96t56 167q0 115 -76 193t-183 78q-104 3 -180 -77t-76 -190q0 -96 56 -170t141 -93q-98 -20 -180 -86t-130 -164t-48 -207q0 -11 7 -18.5t18 -7.5t18.5 7.5t7.5 18.5q0 105 51.5 199.5t136 150t178.5 55.5q93 0 178 -56.5t136 -151t51 -197.5
q0 -11 7.5 -18.5t18.5 -7.5t18 7.5t7 18.5q2 109 -45.5 207t-129 163t-179.5 83zM223 629q0 88 59.5 152t141.5 64t140 -64t58 -152t-59.5 -152t-141.5 -64q-83 0 -140.5 63t-57.5 153zM1020 -44q0 137 -73.5 251.5t-185.5 165.5q55 33 86 90.5t31 128.5q0 83 -53 156
t-126 89q-11 3 -21 -3.5t-12 -18.5q-3 -10 3.5 -20t18.5 -12q51 -12 93 -67t42 -124q0 -75 -47.5 -130t-117.5 -63q-33 0 -33 -29.5t37 -29.5q79 -9 149 -64.5t112 -142t42 -181.5q0 -13 9 -21t21 -8q14 0 21 8.5t4 24.5z" />
    <glyph glyph-name="jiahao" unicode="&#xe64e;" 
d="M997 411h-459v459q0 11 -8 18.5t-18 7.5t-18 -7.5t-8 -18.5v-459h-459q-10 0 -17.5 -7.5t-7.5 -18t7.5 -18t17.5 -7.5h459v-459q0 -10 8 -18t18 -8t18 8t8 18v459h459q10 0 17.5 7.5t7.5 18t-7.5 18t-17.5 7.5z" />
    <glyph glyph-name="dengpao1" unicode="&#xe64f;" 
d="M512 519q-52 0 -89.5 -37t-37.5 -88.5t37.5 -88t89.5 -36.5t89.5 37t37.5 88t-37.5 88t-89.5 37zM512 896q-103 0 -197.5 -40.5t-163 -108.5t-109 -162.5t-40.5 -198.5t40.5 -198t109 -162t163 -108.5t197.5 -40.5t197.5 40.5t163 108.5t109 162.5t40.5 198.5t-40.5 198
t-109 162.5t-163 108.5t-197.5 40zM644 563l29 29q4 4 11.5 4t12 -4.5t4.5 -11.5t-5 -12l-28 -28q-7 -5 -13 -5q-8 0 -11 5q-5 4 -5 11.5t5 11.5zM497 650q0 7 5 12t12 5q8 0 12.5 -5t4.5 -12v-41q0 -7 -5 -11.5t-12 -4.5t-12 4.5t-5 11.5v41zM311 398h-41q-7 0 -12 5t-5 12
t5 11.5t12 4.5h41q8 0 13 -5t5 -11q0 -7 -5.5 -12t-12.5 -5zM331 594q12 12 24 0l29 -29q5 -4 5 -11.5t-5 -11.5q-7 -5 -12.5 -5t-12.5 5l-28 28q-5 5 -5 12t5 12zM552 106h-80q-8 0 -12.5 5t-4.5 12t5 11.5t12 4.5h80q7 0 12 -5t5 -11q0 -7 -5 -12t-12 -5zM574 170h-124
q-8 0 -13 4.5t-5 11.5t5.5 12t12.5 5h124q7 0 12.5 -5t5.5 -11.5t-5.5 -11.5t-12.5 -5zM626 283q-48 -46 -114 -46t-114 46q-47 47 -47 112q0 67 47 113q48 46 114 46t114 -46q47 -47 47 -113q0 -67 -47 -112zM754 394h-41q-8 0 -13 5t-5 11.5t5.5 11.5t12.5 5h41
q6 0 11 -4.5t6 -11.5q-4 -17 -17 -17z" />
    <glyph glyph-name="shanchu1" unicode="&#xe651;" horiz-adv-x="1025" 
d="M870 745q-99 99 -229.5 134t-260 0t-226.5 -134t-132.5 -229t-1 -260t133.5 -227t229 -132t260 -1t227 133t132.5 229t1 260t-133.5 227zM742 194q8 -9 8 -20.5t-8 -20.5q-7 -7 -18 -7t-18 7l-194 194l-194 -194q-7 -7 -18 -7t-18 7q-8 9 -8 20.5t8 20.5l193 193
l-193 194q-8 8 -8 20t8 20t20 8t20 -8l194 -194l193 194q9 8 20.5 8t20 -8t8.5 -20t-8 -20l-194 -194z" />
    <glyph glyph-name="duihao1" unicode="&#xe652;" 
d="M376.5 25q-18.5 0 -31.5 13l-310 314q-14 15 -14 33.5t14 32.5q14 13 32.5 13t32.5 -13l277 -282l568 581q12 15 31 15t33 -14.5t14 -33t-14 -32.5l-601 -614q-13 -13 -31.5 -13z" />
    <glyph glyph-name="beizhu" unicode="&#xe657;" 
d="M512 -118q-102 0 -195 40t-160 107t-107 160t-40 195t40 195t107 160t160 107t195 40t195 -40t160 -107t107 -160t40 -195t-40 -195t-107 -160t-160 -107t-195 -40zM670 571h-43v19q0 6 -4.5 10.5t-10.5 4.5t-10 -4.5t-4 -10.5v-19h-158v19q0 6 -4 10.5t-10 4.5t-10 -4.5
t-4 -10.5v-19h-57q-18 0 -30.5 -13t-12.5 -31v-320q0 -18 12.5 -31t30.5 -13h315q17 0 29.5 13t12.5 31v320q0 18 -12.5 31t-29.5 13v0zM684 207q0 -6 -4.5 -10.5t-9.5 -4.5h-315q-6 0 -10.5 4.5t-4.5 10.5v320q0 6 4.5 10.5t10.5 4.5h57v-5q0 -6 4 -10t10 -4t10 4t4 10v5
h158v-5q0 -6 4 -10t10 -4t10.5 4t4.5 10v5h43q5 0 9.5 -4.5t4.5 -10.5v-320v0zM627 469h-229q-6 0 -10.5 -4.5t-4.5 -10.5t4.5 -10t10.5 -4h229q5 0 9.5 4t4.5 10t-4.5 10.5t-9.5 4.5zM627 381h-229q-6 0 -10.5 -4t-4.5 -10t4.5 -10.5t10.5 -4.5h229q5 0 9.5 4.5t4.5 10.5
t-4.5 10t-9.5 4v0zM512 294h-114q-6 0 -10.5 -4t-4.5 -10t4.5 -10.5t10.5 -4.5h114q6 0 10 4.5t4 10.5t-4 10t-10 4v0z" />
    <glyph glyph-name="menzhenguahaoxiaodian" unicode="&#xe658;" 
d="M512 384zM64 384q0 -185 131.5 -316.5t316.5 -131.5t316.5 131.5t131.5 316.5t-131.5 316.5t-316.5 131.5t-316.5 -131.5t-131.5 -316.5z" />
    <glyph glyph-name="qianfei" unicode="&#xe659;" 
d="M512 -89q-96 0 -183.5 37.5t-151 101t-101 151t-37.5 183.5t37.5 183.5t101 151t151 101t183.5 37.5t183.5 -37.5t151 -101t101 -151t37.5 -183.5t-37.5 -183.5t-101 -151t-151 -101t-183.5 -37.5zM402 518h298q-6 -33 -24.5 -75.5t-38.5 -70.5l33 -31q60 73 77 188v32
h-329q15 40 26 92l-46 7q-31 -175 -142 -269l28 -37q74 59 118 164zM492 477q-1 -125 -41 -205q-53 -96 -215 -159l31 -37q181 74 231 187q11 27 18 48q69 -156 257 -236l25 40q-211 86 -266 267q6 49 6 95h-46z" />
    <glyph glyph-name="beizhu1" unicode="&#xe65a;" 
d="M512 -118q-102 0 -195 40t-160 107t-107 160t-40 195t40 195t107 160t160 107t195 40t195 -40t160 -107t107 -160t40 -195t-40 -195t-107 -160t-160 -107t-195 -40zM670 571h-43v19q0 6 -4.5 10.5t-10.5 4.5t-10 -4.5t-4 -10.5v-19h-158v19q0 6 -4 10.5t-10 4.5t-10 -4.5
t-4 -10.5v-19h-57q-18 0 -30.5 -13t-12.5 -31v-320q0 -18 12.5 -31t30.5 -13h315q17 0 29.5 13t12.5 31v320q0 18 -12.5 31t-29.5 13v0zM684 207q0 -6 -4.5 -10.5t-9.5 -4.5h-315q-6 0 -10.5 4.5t-4.5 10.5v320q0 6 4.5 10.5t10.5 4.5h57v-5q0 -6 4 -10t10 -4t10 4t4 10v5
h158v-5q0 -6 4 -10t10 -4t10.5 4t4.5 10v5h43q5 0 9.5 -4.5t4.5 -10.5v-320v0zM627 469h-229q-6 0 -10.5 -4.5t-4.5 -10.5t4.5 -10t10.5 -4h229q5 0 9.5 4t4.5 10t-4.5 10.5t-9.5 4.5zM627 381h-229q-6 0 -10.5 -4t-4.5 -10t4.5 -10.5t10.5 -4.5h229q5 0 9.5 4.5t4.5 10.5
t-4.5 10t-9.5 4v0zM512 294h-114q-6 0 -10.5 -4t-4.5 -10t4.5 -10.5t10.5 -4.5h114q6 0 10 4.5t4 10.5t-4 10t-10 4v0z" />
    <glyph glyph-name="quanbuguahao" unicode="&#xe65b;" 
d="M127 768v0q-31 0 -53.5 -22.5t-22.5 -54t22.5 -53.5t53.5 -22v0q32 0 54.5 22t22.5 53.5t-22.5 54t-54.5 22.5zM313 742q-15 0 -25.5 -11t-10.5 -26v-26q0 -16 10.5 -26.5t25.5 -10.5h623q15 0 26 10.5t11 26.5v26q0 15 -11 26t-26 11h-623zM127 448v0q-31 0 -53.5 -22.5
t-22.5 -54t22.5 -54t53.5 -22.5v0q32 0 54.5 22.5t22.5 54t-22.5 54t-54.5 22.5zM277 358q0 -15 10.5 -26t25.5 -11h623q15 0 26 11t11 26v27q0 15 -11 26t-26 11h-623q-15 0 -25.5 -11t-10.5 -26v-27zM127 127h-1q-32 0 -54 -22t-22 -54t22 -54t54 -22h1q31 0 53 22.5
t22 53.5t-22 53.5t-53 22.5zM277 38q0 -15 10.5 -26t25.5 -11h623q15 0 26 11t11 26v26q0 15 -11 26t-26 11h-623q-15 0 -25.5 -11t-10.5 -26v-26z" />
    <glyph glyph-name="dianhuabu" unicode="&#xe65c;" 
d="M208 414h-182v-60h182v60zM208 597h-182v-61h182v61zM877 870h-669v0q-50 0 -86 -35.5t-36 -85.5v0v-31h61v0q0 38 27 65t64 27v0h608q38 0 65 -27t27 -65v-668q0 -38 -27 -65t-65 -27h-608v0q-37 0 -64 27t-27 65h-61v-31v0q0 -50 36 -85.5t86 -35.5h669q50 0 85.5 35.5
t35.5 85.5v730v0q0 50 -35.5 85.5t-85.5 35.5v0zM330 171h60q1 62 45.5 106t106.5 44t107 -44t45 -106h61q0 53 -33.5 108.5t-80.5 80.5q22 18 37.5 52t15.5 63v0v0q0 63 -44.5 107.5t-107.5 44.5v0v0q-63 0 -107.5 -44.5t-44.5 -107.5v0q0 -70 54 -115q-48 -25 -81 -80
t-33 -109v0zM542 566v0q38 0 65 -26.5t27 -64.5v0q0 -38 -27 -64.5t-64.5 -26.5t-64.5 26.5t-27 64.5t27 64.5t64 26.5zM208 232h-182v-61h182v61z" />
    <glyph glyph-name="menzhenguahaoxiaodian1" unicode="&#xe65d;" 
d="M512 384zM64 384q0 -185 131.5 -316.5t316.5 -131.5t316.5 131.5t131.5 316.5t-131.5 316.5t-316.5 131.5t-316.5 -131.5t-131.5 -316.5z" />
    <glyph glyph-name="rili" unicode="&#xe65e;" 
d="M735 83h40q17 0 29 9t12 21.5t-12 21.5t-29 9h-40q-17 0 -29 -9t-12 -21.5t12 -21.5t29 -9zM735 265h40q17 0 29 9t12 21.5t-12 21.5t-29 9h-40q-17 0 -29 -9t-12 -21.5t12 -21.5t29 -9zM493 265h39q17 0 29 9t12 21.5t-12 21.5t-29 9h-39q-17 0 -29.5 -9t-12.5 -21.5
t12.5 -21.5t29.5 -9zM250 265h39q17 0 29 9t12 21.5t-12 21.5t-29 9h-39q-17 0 -29 -9t-12 -21.5t12 -21.5t29 -9zM493 83h39q17 0 29 9t12 21.5t-12 21.5t-29 9h-39q-17 0 -29.5 -9t-12.5 -21.5t12.5 -21.5t29.5 -9zM250 83h39q17 0 29 9t12 21.5t-12 21.5t-29 9h-39
q-17 0 -29 -9t-12 -21.5t12 -21.5t29 -9zM819 751h-61v86v1q0 12 -9 20.5t-21 8.5q-11 0 -20 -7.5t-10 -19.5v-89h-369v86v3q0 12 -9 20.5t-20.5 8.5t-20.5 -8.5t-9 -20.5v-89h-65q-77 0 -128 -52.5t-51 -147.5v-469q0 -70 47 -122t115 -58l631 -1q74 0 126.5 53t52.5 128
v488q0 75 -52.5 128t-126.5 53v0zM937 64q0 -42 -32 -72t-77 -30h-632q-45 0 -77 30t-32 72v383h850v-383v0zM937 588v-80h-850v80q0 40 33.5 71t88.5 31h61v-91v0q0 -12 8.5 -20.5t20.5 -8.5q13 0 21.5 9t8.5 21v3v87h369v-91q1 -12 9.5 -20.5t20.5 -8.5t21 9t9 21v3v87h58
q47 0 86 -30t35 -72z" />
    <glyph glyph-name="sanjiaoxia" unicode="&#xe65f;" 
d="M512 64l448 640h-896z" />
    <glyph glyph-name="zhongyao1" unicode="&#xe660;" 
d="M512 -89q-96 0 -183.5 37.5t-151 101t-101 151t-37.5 183.5t37.5 183.5t101 151t151 101t183.5 37.5t183.5 -37.5t151 -101t101 -151t37.5 -183.5t-37.5 -183.5t-101 -151t-151 -101t-183.5 -37.5zM512 226l185 -97l-35 206l150 146l-207 30l-93 188l-93 -188l-207 -30
l150 -146l-35 -206z" />
    <glyph glyph-name="sanjiaoshang" unicode="&#xe661;" 
d="M512 704l448 -640h-896z" />
    <glyph glyph-name="zuoji" unicode="&#xe663;" 
d="M537 709h413q27 0 36 -20l1 -4v-604l-1 -3q-9 -20 -36 -20h-273h-272q-2 -30 -18.5 -51.5t-43.5 -29.5q-12 -4 -25 -4v0h-185q-7 0 -12 1q-50 11 -66 57q-4 10 -4 21v1v664q0 5 1 9q10 48 59 64q11 4 24 4v0h186q6 0 12 -2q30 -5 49 -26t21 -50v-7h134zM96 384v-8v-318
q0 -20 11.5 -31.5t31.5 -11.5h177q19 0 30.5 12t11.5 32v649q0 20 -11.5 31.5t-31.5 11.5h-88h-88q-18 1 -30.5 -11.5t-12.5 -31.5v-108v-129v-87zM940 489h-492q-8 0 -11 1q-8 0 -13 5.5t-6 13.5v2q0 16 16 20q5 1 11 1h1h479h15v126h-538v-550h538v381zM769 354
q-14 1 -23 9t-9 20t9 20.5t23 8.5h20.5h22.5q13 0 21.5 -8t8.5 -20.5t-8.5 -20.5t-21.5 -9h-7h-1h-7h-7h-6h-4h-3h-9h1zM568 412h6h15q13 0 21.5 -8t8.5 -20q1 -13 -7.5 -21t-22.5 -9h-45q-13 1 -21.5 9t-8 20.5t9 20t21.5 8.5h10h6h7zM813 266q12 0 20.5 -8t8.5 -19v-2
q0 -11 -8 -19.5t-19 -8.5q-24 -1 -50 0q-12 0 -20 8.5t-8 20.5v1q1 11 9 19t21 8h15h1h14h8h8zM590 266q12 0 20.5 -8t8.5 -19v-2q0 -11 -8 -19.5t-20 -8.5q-22 -1 -48 0q-12 0 -20.5 8.5t-8 20.5t9 20t20.5 8h16h14h16z" />
    <glyph glyph-name="duanxin" unicode="&#xe664;" 
d="M512 -102q-99 0 -189 38.5t-155 103.5t-103.5 155t-38.5 189t38.5 189t103.5 155t155 103.5t189 38.5t189 -38.5t155 -103.5t103.5 -155t38.5 -189t-38.5 -189t-103.5 -155t-155 -103.5t-189 -38.5zM512 -82q95 0 181 37t148.5 99.5t99.5 148.5t37 181t-37 181
t-99.5 148.5t-148.5 99.5t-181 37t-181 -37t-148.5 -99.5t-99.5 -148.5t-37 -181t37 -181t99.5 -148.5t148.5 -99.5t181 -37zM795 507l-235 -179q-19 -15 -48 -15t-48 15l-235 179v61h566v-61zM795 159h-566v296l198 -151q36 -27 85 -27t85 27l198 151v-296v0z" />
    <glyph glyph-name="paixutubiao" unicode="&#xe665;" 
d="M512 794l256 -308h-512zM512 -26l-256 308h512z" />
    <glyph glyph-name="biaoqian-" unicode="&#xe666;" 
d="M672 -71l284 103q13 5 19 17q3 7 3 14q0 6 -2 11l-208 543l-38 97q3 -1 26 -22t44 -42l21 -20l198 -540q5 -13 5 -27q0 -18 -8 -33q-5 -13 -18 -24.5t-26 -16.5l-284 -103q-13 -5 -27 -5q-17 0 -33 7q-9 4 -17.5 14t-13.5 17.5l-5 7.5l21 78q1 -4 2 -9t6 -18t11 -23.5
t17 -18.5t23 -7v0zM71 -33q-29 8 -49.5 35t-20.5 57q0 13 3 25l166 619q10 40 42.5 79.5t79.5 69t104.5 40.5t118.5 -7q46 -14 83 -41t58 -60.5t34 -72.5t12 -76.5t-8 -72.5l-166 -618q-8 -30 -35 -50.5t-57 -20.5q-13 0 -25 3l-340 91v0zM88 27l339 -91q4 -1 8 -1
q11 0 20.5 7t12.5 18l166 618q5 16 3.5 52t-11.5 67q-29 99 -129 129q-101 29 -189 -42q-28 -23 -51 -52.5t-27 -44.5l-166 -619q-1 -4 -1 -9q0 -10 7 -19.5t18 -12.5v0zM327 46l120 447l60 -16l-120 -447l-60 16v0zM169 89l120 446l60 -16l-120 -446l-60 16v0zM357 650.5
q0 -32.5 23 -55t55 -22.5t55 22.5t23 55t-23 55.5t-55 23t-55 -23t-23 -55.5z" />
    <glyph glyph-name="hebingxingzhuang" unicode="&#xe66a;" 
d="M512 896q102 0 194.5 -39.5t159.5 -107t107 -160t40 -194.5t-40 -195t-107 -160t-159.5 -106.5t-194.5 -39.5t-194.5 39.5t-159.5 106.5t-107 160t-40 195t40 194.5t107 160t159.5 107t194.5 39.5zM512 875q-98 0 -186.5 -38t-153 -102t-102.5 -153t-38 -187t38 -187
t102.5 -153t153 -102.5t186.5 -38.5t186.5 38.5t153 102.5t102.5 153t38 187t-38 186.5t-102.5 153t-153 102.5t-186.5 38zM819 212v0v0q0 -45 -45 -86.5t-104 -41.5q-33 0 -63 15v-1q-127 64 -229.5 166.5t-166.5 229.5v1q-14 30 -14 63q0 59 41 103.5t86 44.5q18 0 30 -12
q3 -3 6 -8l93 -119q13 -13 13 -30q0 -14 -9 -26l-33 -33v0q-10 -8 -10 -21q0 -15 12 -24h-1q21 -29 56.5 -64.5t63.5 -55.5h1v0q8 -12 23 -12q13 0 21 10v0l34 33q11 9 25 9q17 0 30 -12l120 -93q4 -3 7 -6q13 -13 13 -30z" />
    <glyph glyph-name="tuifei" unicode="&#xe678;" 
d="M724 414h-444q-10 0 -17 7.5t-7 18t7 18t17 7.5h444q10 0 17.5 -7.5t7.5 -18t-7.5 -18t-17.5 -7.5zM724 266h-444q-10 0 -17 7.5t-7 18t7 18t17 7.5h444q10 0 17.5 -7.5t7.5 -18t-7.5 -18t-17.5 -7.5zM502 28q-10 0 -17.5 7.5t-7.5 18.5v356q0 11 7.5 18.5t17.5 7.5
t17.5 -7.5t7.5 -18.5v-356q0 -11 -7.5 -18.5t-17.5 -7.5zM502 431q-10 0 -17.5 7.5t-7.5 18t8 17.5l139 144q7 8 17.5 8t17.5 -7.5t7 -18t-7 -18.5l-139 -144q-8 -7 -18 -7v0zM792 -88h-580q-74 0 -126 53.5t-52 130.5v599q0 76 52 130t126 54h288q10 0 17.5 -7.5t7.5 -18
t-7.5 -18t-17.5 -7.5h-288q-53 0 -91 -39t-38 -94v-600q0 -55 38 -94t91 -39h580q54 0 91.5 39t37.5 94v300q0 10 7 17.5t17.5 7.5t17.5 -7.5t7 -17.5v-300q0 -76 -52 -129.5t-126 -53.5zM502 431q-10 0 -17 7l-140 144q-7 8 -7 18.5t7 18t17.5 7.5t17.5 -8l140 -144
q7 -7 7 -17.5t-7.5 -18t-17.5 -7.5zM976 694h-443q-11 0 -18 7.5t-7 18t7 18t18 7.5h443q10 0 17.5 -7.5t7.5 -18t-7.5 -18t-17.5 -7.5z" />
    <glyph glyph-name="shoufeidanxiangqingquanbuxiugai" unicode="&#xe679;" 
d="M800 -95h-599q-76 0 -130 54t-54 130v599q0 76 54 130t130 54h298q10 0 17.5 -7.5t7.5 -18t-7.5 -18t-17.5 -7.5h-298q-55 0 -94 -39t-39 -94v-599q0 -55 39 -94t94 -39h599q55 0 94 39t39 94v299q0 10 7.5 17.5t18 7.5t18 -7.5t7.5 -17.5v-299q0 -76 -54 -130t-130 -54z
M971 824l-421 -421q-10 -9 -22 -11t-19.5 5.5t-6 20t11.5 21.5l421 421q9 10 21.5 11.5t19.5 -6t5.5 -19.5t-10.5 -22z" />
    <glyph glyph-name="Untitled-" unicode="&#xe67d;" 
d="M85 612q0 16 9 26q12 11 26.5 11t26.5 -11l373 -373l369 373q12 11 27 11t26.5 -11.5t11.5 -26.5t-11 -27l-395 -394q-12 -12 -26.5 -12t-26.5 12l-401 397q-9 11 -9 25v1v-1z" />
    <glyph glyph-name="shouqi" unicode="&#xe67f;" 
d="M939 215q0 -16 -9 -25q-12 -12 -26.5 -12t-26.5 12l-373 372l-369 -372q-12 -12 -27 -12t-26.5 11.5t-11.5 26.5t11 27l395 394q12 12 26.5 12t26.5 -12l401 -397q9 -11 9 -24v-1v0z" />
    <glyph glyph-name="Untitled-1" unicode="&#xe681;" 
d="M37 -123v0q-13 0 -22.5 9.5t-9.5 22.5t9 22l951 951q9 9 22 9t22.5 -9.5t9.5 -22.5t-9 -22l-951 -951q-9 -9 -22 -9v0v0zM987 -123v0q-13 0 -22 9l-951 951q-9 9 -9 22t9.5 22.5t22.5 9.5t22 -9l951 -951q9 -9 9 -22t-9 -22.5t-23 -9.5v0z" />
    <glyph glyph-name="xinzengtuxiang" unicode="&#xe684;" 
d="M809 -49h-594q-89 0 -145 63q-42 46 -42 106v528q0 70 55 119.5t132 49.5h594q77 0 132 -49.5t55 -119.5v-528q0 -62 -44 -109q-56 -60 -143 -60zM215 766q-56 0 -96 -34.5t-40 -83.5v-528q0 -41 29 -72q40 -46 107 -46h594q65 0 106 44q30 32 30 74v528q0 49 -40 83.5
t-96 34.5h-594v0zM947 41v0q-11 0 -19 8q-202 207 -233 220q-13 3 -47.5 -26.5t-61.5 -66.5l-21 -28l-20 28q-50 68 -101 126t-67 62q-25 2 -105.5 -83.5t-173.5 -221.5q-7 -11 -21 -11q-10 0 -17.5 7.5t-7.5 17.5q0 8 4 15q26 38 52.5 74.5t67 86t75 85t71 59.5t61.5 22
q51 -5 183 -182q84 98 142 85q36 -8 257 -233q7 -8 7 -18.5t-7.5 -18t-17.5 -7.5v0z" />
    <glyph glyph-name="Untitled-3" unicode="&#xe686;" 
d="M506 390zM23 390.5q0 -98.5 38 -188t103 -154.5t154.5 -103t187.5 -38t188 38t154.5 103t103 154.5t38.5 188t-38.5 188t-103 154t-154.5 103t-188 38.5t-187.5 -38.5t-154.5 -103t-103 -154t-38 -188zM775 363h-538v0q-11 0 -18.5 8t-7.5 19t7.5 19t18.5 8v0h538
q11 0 19 -8t8 -19t-8 -19t-19 -8zM506 95v0q-11 0 -19 7.5t-8 19.5v0v537q0 11 8 19t19 8t19 -8t8 -19v-537v0q0 -12 -8 -19.5t-19 -7.5v0z" />
    <glyph glyph-name="Untitled-4" unicode="&#xe687;" 
d="M512 391zM28 391q0 -98 38.5 -187.5t103.5 -154.5t154.5 -103.5t187.5 -38.5t187.5 38.5t154.5 103.5t103.5 154.5t38.5 187.5t-38.5 187.5t-103.5 154.5t-154.5 103.5t-187.5 38.5t-187.5 -38.5t-154.5 -103.5t-103.5 -154.5t-38.5 -187.5zM781 364h-538q-11 0 -18.5 8
t-7.5 19t7.5 19t18.5 8h538v0q11 0 18.5 -8t7.5 -19t-7.5 -19t-18.5 -8v0zM512 96v0q-11 0 -19 7.5t-8 18.5v538q0 11 8 19t19 8t19 -8t8 -19v-538v0q0 -11 -8 -18.5t-19 -7.5v0z" />
    <glyph glyph-name="Untitled-5" unicode="&#xe688;" 
d="M766 359h-508q-10 0 -17.5 7t-7.5 18t7.5 18t17.5 7h508q10 0 17.5 -7t7.5 -18t-7.5 -18t-17.5 -7zM512 -100q-98 0 -187.5 38.5t-154.5 103.5t-103.5 154.5t-38.5 187.5t38.5 187.5t103.5 154.5t154.5 103.5t187.5 38.5t187.5 -38.5t154.5 -103.5t103.5 -154.5
t38.5 -187.5t-38.5 -187.5t-103.5 -154.5t-154.5 -103.5t-187.5 -38.5zM512 814q-117 0 -216 -57.5t-156.5 -156.5t-57.5 -216t57.5 -216t156.5 -156.5t216 -57.5t216 57.5t156.5 156.5t57.5 216t-57.5 216t-156.5 156.5t-216 57.5z" />
    <glyph glyph-name="zuofei" unicode="&#xe689;" 
d="M646.5 -92q-10.5 0 -18 7.5t-7.5 18t7 18.5l324 324q8 7 18.5 7t18 -7.5t7.5 -18t-8 -17.5l-324 -324q-7 -8 -17.5 -8zM970 -92v0q-10 0 -18 8l-324 324q-7 7 -7 17.5t7.5 18t18 7.5t17.5 -7l324 -324q8 -8 8 -18.5t-7.5 -18t-18.5 -7.5v0zM28 91v599q0 76 54 130t130 54
h600q76 0 130 -54t54 -130v-298q0 -10 -7.5 -17.5t-18 -7.5t-18 7.5t-7.5 17.5v298q0 55 -39 94t-94 39h-600q-55 0 -94 -39t-39 -94v-599q0 -55 39 -94t94 -39h300q10 -1 17 -8.5t7 -17.5t-7 -17.5t-17 -7.5h-300q-76 0 -129.5 54t-54.5 130z" />
    <glyph glyph-name="xinzenghuifang" unicode="&#xe68a;" 
d="M935 35h-259q-6 0 -10 7.5t-4 18t4 18t10 7.5h259q6 0 10 -7.5t4 -18.5t-4 -18t-10 -7zM829 197v-274q0 -7 -7 -11.5t-16.5 -4.5t-17 4.5t-7.5 11.5v274q0 7 7.5 11.5t17 4.5t16.5 -4.5t7 -11.5zM684 573h-344q-8 0 -14 7.5t-6 18t6 18t14 7.5h344q8 0 14 -7.5t6 -18
t-6 -18t-14 -7.5zM684 425h-344q-8 0 -14 7.5t-6 18t6 18t14 7.5h344q8 0 14 -7.5t6 -18t-6 -18t-14 -7.5zM684 276h-344q-8 0 -14 7.5t-6 18t6 18t14 7.5h344q8 0 14 -7.5t6 -18t-6 -18t-14 -7.5zM57 91v600q0 76 50.5 129.5t122.5 53.5h564q72 0 122.5 -53.5t50.5 -129.5
v-298q0 -11 -7 -18t-17 -7t-17 7t-7 18v298q0 55 -36.5 94t-88.5 39h-564q-52 0 -88.5 -39t-36.5 -94v-600q0 -55 36.5 -94t88.5 -39h282q10 0 17 -7.5t7 -18t-7 -18t-17 -7.5h-282q-72 0 -122.5 54t-50.5 130z" />
    <glyph glyph-name="xinzengwaijiagong" unicode="&#xe68b;" 
d="M973 114h-413q-9 0 -16 7.5t-7 18t7 18t16 7.5h413q9 0 16 -7.5t7 -18t-7 -18t-16 -7.5zM792 346v-413q0 -9 -7.5 -16t-18 -7t-18 7t-7.5 16v413q0 9 7.5 16t18 7t18 -7t7.5 -16zM28 94v600q0 76 54 130t130 54h600q76 0 130 -54t54 -130v-298q0 -10 -7.5 -17.5t-18 -7.5
t-18 7.5t-7.5 17.5v298q0 55 -39 94t-94 39h-600q-55 0 -94 -39t-39 -94v-600q0 -55 39 -94t94 -39h300q10 0 17.5 -7.5t7.5 -18t-7.5 -18t-17.5 -7.5h-300q-76 1 -129.5 54.5t-54.5 129.5z" />
    <glyph glyph-name="daishoufei" unicode="&#xe68c;" 
d="M499.5 -88q-95.5 0 -183 37.5t-150.5 100.5t-100.5 150.5t-37.5 183t37.5 183t100.5 150.5t150.5 100.5t183.5 37.5q11 0 19.5 -8.5t8.5 -20.5t-8.5 -20t-19.5 -8q-113 0 -208.5 -55.5t-151 -151t-55.5 -208t55.5 -208t151 -151t208 -55.5t208 55.5t151 151t55.5 207.5
q0 12 8.5 20.5t20 8.5t20 -8.5t8.5 -20.5q0 -95 -37.5 -182.5t-100.5 -150.5t-150.5 -100.5t-183 -37.5zM677 431h-354q-9 0 -14.5 6t-5.5 14.5t5.5 15t14.5 6.5h354q8 0 13.5 -6.5t5.5 -15t-5.5 -14.5t-13.5 -6zM677 308h-354q-9 0 -14.5 6.5t-5.5 15t5.5 14.5t14.5 6h354
q8 0 13.5 -6t5.5 -14.5t-5.5 -15t-13.5 -6.5zM500 113q-8 0 -14 6t-6 15v293q0 9 6 15t14 6t13.5 -6t5.5 -15v-293q0 -9 -5.5 -15t-13.5 -6zM499.5 444q-8.5 0 -14 6.5t-5.5 15t6 14.5l111 119q6 6 14 6t14 -6.5t6 -15t-6 -14.5l-111 -119q-6 -6 -14.5 -6zM499.5 444
q-8.5 0 -13.5 6l-112 119q-5 6 -5 14.5t5.5 15t14 6.5t13.5 -6l112 -119q5 -6 5 -14.5t-5.5 -15t-14 -6.5zM950 655h-310q-7 0 -12 7t-5 17t5 17.5t12 7.5h310q7 0 12 -7.5t5 -17.5t-5 -17t-12 -7zM820 834v-310q0 -7 -7.5 -12t-17.5 -5t-17.5 5t-7.5 12v310q0 7 7.5 12
t17.5 5t17.5 -5t7.5 -12z" />
    <glyph glyph-name="yituifei" unicode="&#xe68d;" 
d="M512 -60q-92 0 -176.5 36t-145.5 97t-97 145.5t-36 177t36 176.5t97 145t145.5 97t176.5 36q10 0 17 -7t7 -17t-7 -17t-17 -7q-110 0 -204 -54.5t-148.5 -148t-54.5 -204t54.5 -204.5t148.5 -148.5t204 -54.5t204 54.5t148.5 148.5t54.5 204q0 10 7 17t17 7t17 -7t7 -17
q0 -92 -36 -176.5t-97 -145.5t-145.5 -97t-176.5 -36zM684 441h-344q-8 0 -14 6t-6 14.5t6 14.5t14 6h344q8 0 14 -6t6 -14.5t-6 -14.5t-14 -6zM684 322h-344q-8 0 -14 6t-6 14.5t6 14.5t14 6h344q8 0 14 -6t6 -14.5t-6 -14.5t-14 -6zM512 132q-8 0 -13.5 6t-5.5 14v286
q0 8 5.5 14t13.5 6t13.5 -6t5.5 -14v-286q0 -8 -5.5 -14t-13.5 -6zM512 454q-8 0 -13.5 6.5t-5.5 14.5t5 14l109 116q5 6 13.5 6t14 -6t5.5 -14.5t-6 -14.5l-108 -116q-6 -6 -14 -6v0zM512 454q-8 0 -14 6l-108 116q-6 6 -6 14.5t5.5 14.5t14 6t13.5 -6l109 -116q5 -6 5 -14
t-5.5 -14.5t-13.5 -6.5v0zM950 676h-301q-7 0 -12 7t-5 17t5 17t12 7h301q7 0 12 -7t5 -17t-5 -17t-12 -7z" />
    <glyph glyph-name="yifuqing" unicode="&#xe68e;" 
d="M512 -59q-92 0 -176.5 36t-145.5 97t-97 145t-36 177q0 91 34.5 174t98.5 148q55 55 149 94t172 39h1v0q92 0 176.5 -36t145.5 -97t97 -145.5t36 -176.5q0 -10 -7 -17t-17 -7t-17 7t-7 17q0 110 -54.5 204t-148.5 148.5t-204 54.5v0q-82 0 -156 -30.5t-132 -88.5
t-88.5 -132.5t-30.5 -155.5q0 -111 54.5 -204.5t148.5 -148t204 -54.5q10 0 17 -7t7 -17t-7 -17t-17 -7v0zM684 442h-344q-8 0 -14 6t-6 14.5t6 14.5t14 6h345q7 0 13 -6t6 -14.5t-6 -14.5t-14 -6zM684 323h-344q-8 0 -14 6t-6 14.5t6 14.5t14 6h345q7 0 13 -6t6 -14.5
t-6 -14.5t-14 -6zM512 132q-8 0 -13.5 6t-5.5 15v286q0 8 5.5 14t13.5 6t13.5 -6t5.5 -14v-286q0 -9 -5.5 -15t-13.5 -6zM512 455q-8 0 -14 6q-5 6 -5 14.5t5 14.5l109 115q5 6 13.5 6t14 -6t5.5 -14t-6 -14l-108 -116q-6 -6 -14 -6zM512 455q-8 0 -14 6l-108 116
q-6 6 -6 14t6 14t14 6t13 -6l109 -115q5 -6 5 -14.5t-5.5 -14.5t-13.5 -6zM688 -60v0q-8 0 -13 5l-134 135q-6 6 -6 14.5t6 14.5q6 5 14 5t14 -5l119 -122l245 251q5 6 13 6t15 -6q6 -6 6 -14.5t-6 -14.5l-259 -264q-6 -5 -14 -5z" />
    <glyph glyph-name="xiangji" unicode="&#xe691;" 
d="M877 -19h-730q-53 0 -90.5 40t-37.5 97v445q0 57 37.5 97.5t90.5 40.5h129q1 36 28.5 61t66.5 25h282q39 0 66.5 -25t28.5 -61h129q53 0 90.5 -40.5t37.5 -97.5v-445q0 -57 -37.5 -97t-90.5 -40zM147 663q-37 0 -63.5 -29t-26.5 -71v-445q0 -41 26.5 -70.5t63.5 -29.5
h730q37 0 63.5 29.5t26.5 70.5v445q0 42 -26.5 71t-63.5 29h-167v36q0 21 -16.5 36t-40.5 15h-282q-24 0 -40.5 -15t-16.5 -36v-36h-167zM512 103q-102 0 -174.5 72t-72.5 174t72.5 174.5t174.5 72.5t174.5 -72.5t72.5 -174.5t-72.5 -174t-174.5 -72zM512 558
q-86 0 -147.5 -61.5t-61.5 -147.5t61.5 -147.5t147.5 -61.5t147.5 61.5t61.5 147.5t-61.5 147.5t-147.5 61.5zM673 330q-8 0 -13.5 5.5t-5.5 13.5q0 59 -41.5 100.5t-100.5 41.5q-8 0 -13.5 5.5t-5.5 13.5t5.5 13.5t13.5 5.5q74 0 127 -53t53 -127q0 -8 -5.5 -13.5
t-13.5 -5.5z" />
    <glyph glyph-name="dengluming" unicode="&#xe692;" 
d="M825 571.5q0 123.5 -88.5 210.5t-214.5 87t-215 -87.5t-89 -210.5q0 -81 42 -149.5t112 -108.5q-130 -41 -208 -150.5t-83 -251.5l46 1q4 97 52.5 181t126.5 133.5t164 49.5l40 -3h12q126 0 214.5 87.5t88.5 211zM521.5 321q-105.5 0 -180 73t-74.5 177t74.5 177
t180.5 73t180.5 -73t74.5 -177t-75 -177t-180.5 -73zM775 227q-12 10 -23 10q-11 1 -18 -6t-7 -20q1 -12 22 -30v0v0q63 -49 101.5 -119t44.5 -151h48q-6 94 -50 176.5t-118 139.5z" />
    <glyph glyph-name="mima" unicode="&#xe693;" 
d="M511 896q-111 0 -185 -78t-74 -194v-96h-9q-58 0 -99 -42t-41 -102v-368q0 -59 41 -101.5t99 -42.5h538q58 0 99 42.5t41 101.5v368q0 60 -41 102t-99 42h-5q-1 0 -4 1v95q0 116 -74.5 194t-186.5 78v0zM511 853q95 0 156.5 -65t61.5 -164v-95h-434v95q0 100 61 164.5
t155 64.5v0zM879 384v-368q0 -42 -29 -71.5t-69 -29.5h-538q-40 0 -69 29.5t-29 71.5v368q0 42 29 71.5t69 29.5h52v2h434v-2h52q40 0 69 -29.5t29 -71.5v0zM501 333q-27 0 -46.5 -20t-19.5 -48q0 -39 33 -58v-111q0 -14 10 -24t23.5 -10t23 10t9.5 24v111q14 8 23.5 25
t9.5 33v0q0 28 -19 48t-47 20v0z" />
    <glyph glyph-name="shoujihao" unicode="&#xe694;" 
d="M141 717q0 64 45 108.5t109 44.5h434q64 0 109 -45t45 -108v-651q0 -64 -45 -109t-109 -45h-434q-64 0 -109 45t-45 109v651zM189 694v-606v0q0 -53 37.5 -90.5t89.5 -37.5h392q52 0 89.5 37.5t37.5 90.5v606v1q0 53 -37.5 90t-89.5 38h-392q-52 0 -89.5 -38t-37.5 -91v0
zM622 65h-196q-12 0 -20 6.5t-8 15.5t8 15t20 6h196q12 0 20 -6t8 -15t-8 -15.5t-20 -6.5z" />
    <glyph glyph-name="yanzhengma" unicode="&#xe695;" 
d="M366 104h-104q-64 0 -108.5 45.5t-44.5 109.5v401q0 64 44.5 109.5t108.5 45.5h500q63 0 108 -45.5t45 -109.5v-401q0 -64 -45 -109.5t-108 -45.5h-131q-11 0 -18 -8l-137 -144q-8 -8 -8 -18q0 -11 8 -19q8 -7 18 -7q11 0 18 8l138 144l-19 -8h131q85 0 144.5 60.5
t59.5 146.5v401q0 86 -60 146.5t-144 60.5h-500q-85 0 -144.5 -60.5t-59.5 -146.5v-401q0 -86 59.5 -146.5t144.5 -60.5h104q11 0 18.5 7.5t7.5 18.5v0q0 11 -7.5 18.5t-18.5 7.5zM280 530h393q10 0 17.5 7.5t7.5 18.5v0q0 10 -7.5 17.5t-17.5 8.5h-393q-11 0 -18.5 -8
t-7.5 -18.5t7.5 -18t18.5 -7.5zM280 368h464q11 0 18.5 7.5t7.5 18.5v0q0 10 -7.5 17.5t-18.5 8.5h-464q-11 0 -18.5 -8t-7.5 -18.5t7.5 -18t18.5 -7.5v0z" />
    <glyph glyph-name="yaoqingma" unicode="&#xe696;" 
d="M343 -98h-3v0h-105q-85 0 -145 68t-60 164v450q0 96 60 163.5t145 67.5h377h-125v-28v-30h-252q-63 0 -108 -51t-45 -122v-450q0 -72 45 -123t108 -51h105q3 0 5 -1h262l-1 1h132q64 0 109 51t45 123v225h51v112v-337q0 -96 -60 -164t-145 -68h-132h1h-264zM903 696
q-409 -4 -593 -196q-35 -37 -60 -79.5t-36 -74.5t-16.5 -64.5t-6 -45t0.5 -19.5l49 3v15t5 39t15 57t32 66t53 70q172 177 565 180l-139 -139q-7 -7 -7 -16.5t7 -16t16.5 -6.5t16.5 6l175 176q7 7 7 16.5t-7 16.5v0l-175 175q-7 7 -16.5 7t-16.5 -7t-7 -16.5t7 -16.5
l131 -130v0z" />
    <glyph glyph-name="yiyuanming" unicode="&#xe697;" 
d="M365 105h-104q-63 0 -108 45.5t-45 109.5v401q0 64 45 109.5t108 45.5h500q64 0 108.5 -45.5t44.5 -109.5v-401q0 -64 -44.5 -109.5t-108.5 -45.5h-131q-10 0 -18 -8l-137 -145q-7 -7 -7 -17q0 -11 8 -19q7 -7 17 -7q11 0 19 8l137 144l-19 -8h131q85 0 144.5 60.5
t59.5 146.5v401q0 86 -59.5 146.5t-144.5 60.5h-500q-84 0 -144 -60.5t-60 -146.5v-401q0 -86 59.5 -146.5t144.5 -60.5h104q11 0 18.5 7.5t7.5 18.5v0q0 11 -7.5 18.5t-18.5 7.5zM335 411h393q11 0 18.5 7.5t7.5 18.5v0q0 11 -7.5 18.5t-18.5 7.5h-393q-10 0 -17.5 -7.5
t-7.5 -18.5t7.5 -18.5t17.5 -7.5v0zM558 241v393q0 10 -7.5 17.5t-18.5 7.5v0q-11 0 -18.5 -7.5t-7.5 -17.5v-393q0 -11 7.5 -18.5t18.5 -7.5v0q11 0 18.5 7.5t7.5 18.5v0z" />
    <glyph glyph-name="Untitled-2" unicode="&#xe698;" 
d="M113 179l-39 -117h-50l127 372h58l127 -372h-52l-39 117h-132zM235 217l-37 107q-7 23 -19 68h-1q-8 -34 -19 -68l-36 -107h112v0zM553 296l-77 -234h-100l253 745h116l255 -745h-103l-80 234h-264zM797 371l-73 215q-15 45 -38 136h-2q-17 -68 -38 -135l-73 -216h224z
" />
    <glyph glyph-name="Untitled-6" unicode="&#xe699;" 
d="M408 384h-247q-31 0 -53.5 22t-22.5 54v246q0 32 22.5 54t53.5 22h247q31 0 53.5 -22t22.5 -54v-246q0 -32 -22.5 -54t-53.5 -22zM161 725v0q-8 0 -13.5 -5.5t-5.5 -13.5v-246q0 -8 5.5 -13.5t13.5 -5.5h247v0q8 0 13.5 5.5t5.5 13.5v0v246v0q0 8 -5.5 13.5t-13.5 5.5
h-247zM887 384h-295q-33 0 -56.5 23.5t-23.5 56.5v295q0 33 23.5 56.5t56.5 23.5h295q33 0 56.5 -23.5t23.5 -56.5v-295q0 -33 -23.5 -56.5t-56.5 -23.5zM592 782q-9 0 -16 -7t-7 -16v-295q0 -9 7 -16t16 -7h295q9 0 16 7t7 16v295q0 9 -7 16t-16 7h-295zM408 -43h-247
q-31 0 -53.5 22.5t-22.5 53.5v247q0 31 22.5 53.5t53.5 22.5h247q31 0 53.5 -22.5t22.5 -53.5v-247q0 -31 -22.5 -53.5t-53.5 -22.5v0zM161 299v0q-8 0 -13.5 -5.5t-5.5 -13.5v-247q0 -8 5.5 -13.5t13.5 -5.5h247v0q8 0 13.5 5.5t5.5 13.5v247q0 8 -5.5 13.5t-13.5 5.5h-247
zM835 -43h-247q-32 0 -54 22.5t-22 53.5v247q0 31 22 53.5t54 22.5h247q31 0 53 -22.5t22 -53.5v-247q0 -31 -22 -53.5t-53 -22.5zM588 299q-8 0 -13.5 -5.5t-5.5 -13.5v-247q0 -8 5.5 -13.5t13.5 -5.5h247q7 0 12.5 5.5t5.5 13.5v247q0 8 -5.5 13.5t-12.5 5.5h-247z" />
    <glyph glyph-name="zijinliushui" unicode="&#xe69a;" 
d="M588 9q-66 0 -144 42q-39 21 -83.5 24.5t-76.5 -4t-64 -22t-43 -22t-17 -11.5l-35 44q8 7 22 16.5t52.5 27t77.5 26t92.5 3t101.5 -31.5q41 -22 77 -29.5t61.5 -4t51.5 18t43 30.5t38 40q37 43 81 41q21 0 41 -10.5t27.5 -18t12.5 -13.5l-44 -35q-18 20 -38 21
q-18 0 -37 -22q-44 -51 -91 -80.5t-106 -29.5v0zM711 498h-398q-12 0 -20.5 8t-8.5 20t8.5 20.5t20.5 8.5h398q12 0 20.5 -8.5t8.5 -20.5t-8.5 -20t-20.5 -8zM711 384h-398q-12 0 -20.5 8.5t-8.5 20t8.5 20t20.5 8.5h398q12 0 20.5 -8.5t8.5 -20t-8.5 -20t-20.5 -8.5z
M512 156q-12 0 -20 8.5t-8 20.5v0v313v0q0 12 8 20t20 8t20 -8t8 -20v0v-313v0q0 -12 -8 -20.5t-20 -8.5v0zM507 503v0q-12 0 -20 8l-161 161q-8 8 -8 20t8 20t20 8t20 -8l161 -161q9 -8 9 -20t-8.5 -20t-20.5 -8v0zM517 503v0q-12 0 -20.5 8t-8.5 20t9 20l161 161q8 8 20 8
t20 -8t8 -20t-8 -20l-161 -161q-8 -8 -20 -8v0zM780 -100h-536q-54 0 -92 37.5t-38 89.5v714q0 52 38 89.5t92 37.5h536q54 0 92 -37.5t38 -89.5v-714q0 -52 -38 -89.5t-92 -37.5zM244 811q-30 0 -51.5 -20.5t-21.5 -49.5v-714q0 -29 21.5 -49.5t51.5 -20.5h536
q30 0 51.5 20.5t21.5 49.5v714q0 29 -21.5 49.5t-51.5 20.5h-536z" />
    <glyph glyph-name="yucunkuantongji" unicode="&#xe69b;" 
d="M853 -43h-682q-59 0 -101 42t-42 101v568q0 59 42 101t101 42h682q59 0 101 -42t42 -101v-568q0 -59 -42 -101t-101 -42zM171 754q-36 0 -61 -25t-25 -61v-568q0 -36 25 -61t61 -25h682q36 0 61 25t25 61v568q0 36 -25 61t-61 25h-682zM57 555h910v-57h-910v57zM711 384
h-569q-12 0 -20 8.5t-8 20t8 20t20 8.5h569q12 0 20.5 -8.5t8.5 -20t-8.5 -20t-20.5 -8.5zM825 156h-199q-12 0 -20.5 8.5t-8.5 20.5t8.5 20t20.5 8h199q12 0 20 -8t8 -20t-8 -20.5t-20 -8.5zM825 71h-199q-12 0 -20.5 8.5t-8.5 20t8.5 20t20.5 8.5h199q12 0 20 -8.5t8 -20
t-8 -20t-20 -8.5z" />
    <glyph glyph-name="liruntongji" unicode="&#xe69c;" 
d="M596 -71h-168q-25 0 -41.5 18t-16.5 43v627q0 25 16 38t42 13h168q26 0 42 -13t16 -38v-627q0 -25 -16.5 -43t-41.5 -18zM428 612q-5 0 -1 5v-627q0 -1 -2 -3q2 -1 3 -1h168l3 1q-2 2 -2 3v627q0 4 2 -1q2 -4 -3 -4h-168zM908 -71h-169q-24 0 -40 20t-16 49v772
q0 29 16 49t40 20h169q24 0 41.5 -20t17.5 -49v-772q0 -29 -17.5 -49t-41.5 -20zM739 782q-3 -1 -2.5 -1t2 -4t1.5 -7v-772q0 -3 -1.5 -7t-2 -4t2.5 -1h169q4 0 3 5q-1 4 -1 7v772q0 3 1 7q1 5 -3 5h-169zM285 -71h-169q-25 0 -42 16t-17 40v531q0 24 17.5 45.5t41.5 21.5
h169q24 0 40 -21t16 -46v-531q0 -24 -15.5 -40t-40.5 -16zM105 -13l1.5 -0.5t4.5 -0.5h5h169q10 0 12 3l-1 532q0 -1 -1 0.5t-4 3t-6 1.5h-169q-6 0 -12 -8l1 -530v0v-1z" />
    <glyph glyph-name="zhensuowaijiagongtongji" unicode="&#xe69d;" 
d="M748 -71h-472q-56 0 -95 35.5t-39 86.5v361q0 12 8.5 20.5t20 8.5t20 -8.5t8.5 -20.5v-361q0 -27 22.5 -46t54.5 -19h472q32 0 54.5 19t22.5 46v361q0 12 8.5 20.5t20 8.5t20 -8.5t8.5 -20.5v-361q0 -51 -39 -86.5t-95 -35.5zM82 409q-12 0 -20.5 8.5t-8.5 19.5q0 9 5 16
q8 12 18 22l346 346q16 17 44.5 28.5t52.5 11.5v0q57 0 97 -40l346 -346q10 -10 18 -22q4 -7 4 -15q0 -12 -8 -20.5t-20 -8.5q-15 0 -24 13q-4 7 -10 12l-346 347q-23 22 -57 22t-57 -22l-346 -347q-6 -5 -10 -12q-9 -13 -24 -13v0zM711 299h-398q-12 0 -20.5 8t-8.5 20
t8.5 20.5t20.5 8.5h398q12 0 20.5 -8.5t8.5 -20.5t-8.5 -20t-20.5 -8zM512 100q-12 0 -20 8t-8 20v398q0 12 8 20.5t20 8.5t20 -8.5t8 -20.5v-398q0 -12 -8 -20t-20 -8z" />
    <glyph glyph-name="congmobantianjia" unicode="&#xe69e;" 
d="M654 -87h-500q-52 0 -88.5 36.5t-37.5 88.5v500q1 52 37.5 88.5t87.5 36.5h501q51 0 88 -36.5t37 -88.5v-500q0 -52 -37 -88.5t-88 -36.5zM154 613q-32 0 -53.5 -22t-22.5 -53v-500q1 -31 22.5 -53t53.5 -22h500q31 0 53 22t22 53v500q0 31 -22 53t-53 22h-500v0z
M871 115h-117q-10 0 -17 7.5t-7 17.5t7 17.5t17 7.5h117q31 0 53 22t22 53v500q0 31 -22 53t-53 22h-501q-31 0 -53 -22t-22 -53v-102v0q0 -10 -7 -17.5t-17.5 -7.5t-18 7.5t-7.5 17.5v0v102q0 52 37 88.5t88 36.5h501q51 0 88 -36.5t37 -88.5v-500q-1 -52 -37.5 -88.5
t-87.5 -36.5zM579 251h-350q-11 0 -18 7t-7 17.5t7 18t18 7.5h350q10 0 17.5 -7.5t7.5 -18t-7.5 -17.5t-17.5 -7zM404 75v0q-11 0 -18 7.5t-7 17.5v0v351v0q0 10 7 17.5t17.5 7.5t18 -7.5t7.5 -17.5v0v-351v0q0 -10 -7.5 -17.5t-17.5 -7.5v0z" />
    <glyph glyph-name="sanjiaoyousvg" unicode="&#xe6ae;" 
d="M832 384l-640 448v-896z" />
    <glyph glyph-name="sanjiaozuosvg" unicode="&#xe6af;" 
d="M192 384l640 -448v896z" />
    <glyph glyph-name="shezhi" unicode="&#xe6b0;" 
d="M662 -22v0q-26 0 -43 18q-16 18 -43 36.5t-51 18.5q-23 0 -50.5 -18.5t-42.5 -35.5q-17 -17 -42 -17q-12 0 -22 4h-1l-110 62l-1 1q-15 10 -20 28.5t2 34.5q11 22 11 45q0 48 -34.5 82t-82.5 34h-4v0q-14 0 -24.5 11.5t-13.5 30.5q-10 50 -10 87q0 38 10 88
q3 19 13.5 30.5t24.5 11.5h4q48 0 82.5 34t34.5 82q0 22 -11 45q-7 16 -2 34.5t20 28.5l1 1l116 63l1 1q10 4 22 4q25 0 42 -17q16 -17 42.5 -34.5t49.5 -17.5t49 17t42 34q17 17 42 17q12 0 22 -4l1 -1l112 -62l1 -1q15 -10 20 -28.5t-2 -35.5q-11 -23 -11 -44
q0 -48 34.5 -82t82.5 -34h4q14 0 24.5 -11.5t14.5 -30.5q9 -50 9 -88t-9 -87q-4 -20 -14.5 -31t-24.5 -11h-4q-48 0 -82.5 -34t-34.5 -82q0 -22 11 -45q7 -16 2 -34.5t-20 -28.5l-1 -1l-114 -63l-1 -1q-10 -4 -21 -4zM658 32q2 -1 4 -1v0l106 59q-14 33 -14 65
q0 67 46.5 116t113.5 53q8 45 8 76t-8 77q-67 4 -113.5 52.5t-46.5 116.5q0 32 14 65l-104 58h-1q-2 0 -4 -1q-16 -17 -39 -32q-48 -35 -90 -35q-43 0 -91 35q-23 16 -39 33q-2 1 -4 1h-1l-108 -59q14 -33 14 -65q0 -68 -46.5 -116.5t-113.5 -52.5q-8 -45 -8 -76.5t8 -76.5
q67 -4 113.5 -53t46.5 -116q0 -32 -14 -65l102 -58h1q2 0 3 1q17 18 39 35q50 36 93 36q44 0 94 -37q23 -17 39 -35zM525.5 246q-64.5 0 -109.5 45.5t-45 109.5t45 109.5t109.5 45.5t109.5 -45.5t45 -109.5t-45 -109.5t-109.5 -45.5zM525.5 503q-42.5 0 -72.5 -30t-30 -72
t30 -72t72.5 -30t72.5 30t30 72t-30 72t-72.5 30z" />
    <glyph glyph-name="weizhi" unicode="&#xe6b1;" 
d="M370 511q0 61 43 104t104 43t104 -43t43 -104t-43 -104t-104 -43t-104 43t-43 104zM517 452q24 0 41.5 17.5t17.5 41.5t-17.5 41.5t-41.5 17.5t-41.5 -17.5t-17.5 -41.5t17.5 -41.5t41.5 -17.5zM813 320l-234 -362q-9 -14 -27 -24t-34.5 -10t-35 10t-26.5 24l283 410
q18 27 30 68.5t12 74.5v0q0 109 -77.5 186.5t-186.5 77.5t-186.5 -77.5t-77.5 -186.5q0 -78 42 -143l135 -208l-64 -64l-145 224q-23 36 -39.5 92t-16.5 98v1q0 96 47 177t128.5 128t177 47t176.5 -47t128 -128t47 -177v-1q0 -42 -16.5 -98t-39.5 -92z" />
  </font>
</defs>
</svg>
